<?xml version="1.0" encoding="UTF-8" standalone="no"?>
<!-- Created with Inkscape (http://www.inkscape.org/) -->

<svg
   inkscape:export-ydpi="96"
   inkscape:export-xdpi="96"
   inkscape:export-filename="C:\Users\8bit\Desktop\OWIE_Workspace\Owie\docs\img\BatteryConsole.png"
   sodipodi:docname="Settings.svg"
   inkscape:version="1.1.1 (3bf5ae0d25, 2021-09-20)"
   id="svg5"
   version="1.1"
   viewBox="0 0 79.374998 79.375002"
   height="300"
   width="300"
   xmlns:inkscape="http://www.inkscape.org/namespaces/inkscape"
   xmlns:sodipodi="http://sodipodi.sourceforge.net/DTD/sodipodi-0.dtd"
   xmlns="http://www.w3.org/2000/svg"
   xmlns:svg="http://www.w3.org/2000/svg">
  <sodipodi:namedview
     id="namedview7"
     pagecolor="#ffffff"
     bordercolor="#666666"
     borderopacity="1.0"
     inkscape:pageshadow="2"
     inkscape:pageopacity="0.0"
     inkscape:pagecheckerboard="0"
     inkscape:document-units="mm"
     showgrid="false"
     units="px"
     inkscape:snap-page="false"
     inkscape:zoom="2.9366593"
     inkscape:cx="141.4873"
     inkscape:cy="143.18992"
     inkscape:window-width="1680"
     inkscape:window-height="987"
     inkscape:window-x="-8"
     inkscape:window-y="-8"
     inkscape:window-maximized="1"
     inkscape:current-layer="layer1"
     inkscape:snap-nodes="false" />
  <defs
     id="defs2">
    <marker
       style="overflow:visible"
       id="DotM"
       refX="0.0"
       refY="0.0"
       orient="auto"
       inkscape:stockid="DotM"
       inkscape:isstock="true">
      <path
         transform="scale(0.4) translate(7.4, 1)"
         style="fill-rule:evenodd;fill:context-stroke;stroke:context-stroke;stroke-width:1.0pt"
         d="M -2.5,-1.0 C -2.5,1.7600000 -4.7400000,4.0 -7.5,4.0 C -10.260000,4.0 -12.5,1.7600000 -12.5,-1.0 C -12.5,-3.7600000 -10.260000,-6.0 -7.5,-6.0 C -4.7400000,-6.0 -2.5,-3.7600000 -2.5,-1.0 z "
         id="path69091" />
    </marker>
    <marker
       style="overflow:visible"
       id="Arrow1Lstart"
       refX="0.0"
       refY="0.0"
       orient="auto"
       inkscape:stockid="Arrow1Lstart"
       inkscape:isstock="true">
      <path
         transform="scale(0.8) translate(12.5,0)"
         style="fill-rule:evenodd;fill:context-stroke;stroke:context-stroke;stroke-width:1.0pt"
         d="M 0.0,0.0 L 5.0,-5.0 L -12.5,0.0 L 5.0,5.0 L 0.0,0.0 z "
         id="path69027" />
    </marker>
    <inkscape:path-effect
       effect="spiro"
       id="path-effect29250"
       is_visible="true"
       lpeversion="1" />
  </defs>
  <g
     inkscape:label="Layer 1"
     inkscape:groupmode="layer"
     id="layer1">
    <g
       inkscape:label="Rendered Gears"
       transform="translate(23.474188,22.592588)"
       id="g125460"
       style="fill:#2b2d2d;fill-opacity:0.8671329;stroke:#000000;stroke-opacity:1;stroke-width:0.4;stroke-miterlimit:4;stroke-dasharray:none">
      <path
         style="fill:#2b2d2d;stroke:#000000;stroke-width:0.4;fill-opacity:0.8671329;stroke-opacity:1;stroke-miterlimit:4;stroke-dasharray:none"
         d="m 11.7154,-1.33045 0.8662,-0.09836 0.8286,0.10802 1.7389,0.76027 v 1.12104 l -1.7389,0.76027 -0.8286,0.10802 -0.8662,-0.09836 -0.3826,1.92368 0.8379,0.24059 0.7242,0.4169 1.3156,1.36785 -0.429,1.03571 L 11.884,6.35213 11.0771,6.13482 10.3145,5.71247 9.22482,7.34329 9.90686,7.88621 10.4164,8.54852 11.1084,10.3157 10.3157,11.1084 8.54852,10.4164 7.88621,9.90686 7.34329,9.22482 5.71247,10.3145 6.13482,11.0771 6.35213,11.884 6.31518,13.7815 5.27947,14.2105 3.91162,12.8949 3.49472,12.1707 3.25413,11.3328 1.33045,11.7154 1.42881,12.5816 1.32079,13.4102 0.56052,15.1491 h -1.12104 l -0.76027,-1.7389 -0.10802,-0.8286 0.09836,-0.8662 -1.92368,-0.3826 -0.24059,0.8379 -0.4169,0.7242 -1.36785,1.3156 -1.03571,-0.429 -0.03695,-1.8975 0.21731,-0.8069 0.42235,-0.7626 -1.63082,-1.08968 -0.54292,0.68204 -0.66231,0.50954 -1.76718,0.692 -0.7927,-0.7927 0.692,-1.76718 0.50954,-0.66231 0.68204,-0.54292 -1.08968,-1.63082 -0.7626,0.42235 -0.8069,0.21731 -1.8975,-0.03695 -0.429,-1.03571 1.3156,-1.36785 0.7242,-0.4169 0.8379,-0.24059 -0.3826,-1.92368 -0.8662,0.09836 -0.8286,-0.10802 -1.7389,-0.76027 v -1.12104 l 1.7389,-0.76027 0.8286,-0.10802 0.8662,0.09836 0.3826,-1.92368 -0.8379,-0.24059 -0.7242,-0.4169 -1.3156,-1.36785 0.429,-1.03571 1.8975,-0.03695 0.8069,0.21731 0.7626,0.42235 1.08968,-1.63082 -0.68204,-0.54292 -0.50954,-0.66231 -0.692,-1.76718 0.7927,-0.7927 1.76718,0.692 0.66231,0.50954 0.54292,0.68204 1.63082,-1.08968 -0.42235,-0.7626 -0.21731,-0.8069 0.03695,-1.8975 1.03571,-0.429 1.36785,1.3156 0.4169,0.7242 0.24059,0.8379 1.92368,-0.3826 -0.09836,-0.8662 0.10802,-0.8286 0.76027,-1.7389 h 1.12104 l 0.76027,1.7389 0.10802,0.8286 -0.09836,0.8662 1.92368,0.3826 0.24059,-0.8379 0.4169,-0.7242 1.36785,-1.3156 1.03571,0.429 0.03695,1.8975 -0.21731,0.8069 -0.42235,0.7626 1.63082,1.08968 0.54292,-0.68204 0.66231,-0.50954 1.76718,-0.692 0.7927,0.7927 -0.692,1.76718 -0.50954,0.66231 -0.68204,0.54292 1.08968,1.63082 0.7626,-0.42235 0.8069,-0.21731 1.8975,0.03695 0.429,1.03571 -1.3156,1.36785 -0.7242,0.4169 -0.8379,0.24059 z"
         id="path125456" />
      <circle
         style="fill:#2b2d2d;stroke:#000000;stroke-width:0.4;fill-opacity:0.8671329;stroke-opacity:1;stroke-miterlimit:4;stroke-dasharray:none"
         id="path125458"
         cx="0"
         cy="0"
         r="2.6458333" />
    </g>
    <g
       inkscape:label="Rendered Gears"
       transform="translate(49.262761,44.413688)"
       id="g125625"
       style="fill:#2b2d2d;fill-opacity:0.8671329;stroke:#000000;stroke-opacity:1;stroke-width:0.4;stroke-miterlimit:4;stroke-dasharray:none">
      <path
         style="fill:#2b2d2d;stroke:#000000;stroke-width:0.4;fill-opacity:0.8671329;stroke-opacity:1;stroke-miterlimit:4;stroke-dasharray:none"
         d="m 18.4685,-1.48722 0.4639,-0.03736 1.237,0.20261 1.7194,0.71941 V 0.60256 L 20.1694,1.32197 18.9324,1.52458 18.4685,1.48722 18.2241,3.34345 18.6819,3.42744 19.8243,3.9433 21.2989,5.08321 20.987,6.24726 19.14,6.49715 17.8927,6.3727 17.4543,6.21655 l -0.7165,1.72973 0.4204,0.1996 0.97,0.79396 1.1293,1.48276 -0.6025,1.0436 -1.8488,-0.2366 -1.1725,-0.4431 -0.3831,-0.2643 -1.1398,1.4854 0.3545,0.3016 0.7314,1.0179 0.7071,1.7245 -0.8522,0.8522 -1.7245,-0.7071 -1.0179,-0.7314 -0.3016,-0.3545 -1.4854,1.1398 0.2643,0.3831 0.4431,1.1725 0.2366,1.8488 -1.0436,0.6025 L 8.93984,18.1282 8.14588,17.1582 7.94628,16.7378 6.21655,17.4543 6.3727,17.8927 6.49715,19.14 6.24726,20.987 5.08321,21.2989 3.9433,19.8243 3.42744,18.6819 3.34345,18.2241 l -1.85623,0.2444 0.03736,0.4639 -0.20261,1.237 -0.71941,1.7194 h -1.20512 l -0.71941,-1.7194 -0.20261,-1.237 0.03736,-0.4639 -1.85623,-0.2444 -0.08399,0.4578 -0.51586,1.1424 -1.13991,1.4746 -1.16405,-0.3119 -0.24989,-1.847 0.12445,-1.2473 0.15615,-0.4384 -1.72973,-0.7165 -0.1996,0.4204 -0.79396,0.97 -1.48276,1.1293 -1.0436,-0.6025 0.2366,-1.8488 0.4431,-1.1725 0.2643,-0.3831 -1.4854,-1.1398 -0.3016,0.3545 -1.0179,0.7314 -1.7245,0.7071 -0.8522,-0.8522 0.7071,-1.7245 0.7314,-1.0179 0.3545,-0.3016 -1.1398,-1.4854 -0.3831,0.2643 -1.1725,0.4431 -1.8488,0.2366 -0.6025,-1.0436 1.1293,-1.48276 0.97,-0.79396 0.4204,-0.1996 -0.7165,-1.72973 -0.4384,0.15615 -1.2473,0.12445 -1.847,-0.24989 -0.3119,-1.16405 1.4746,-1.13991 1.1424,-0.51586 0.4578,-0.08399 -0.2444,-1.85623 -0.4639,0.03736 -1.237,-0.20261 -1.7194,-0.71941 v -1.20512 l 1.7194,-0.71941 1.237,-0.20261 0.4639,0.03736 0.2444,-1.85623 -0.4578,-0.08399 -1.1424,-0.51586 -1.4746,-1.13991 0.3119,-1.16405 1.847,-0.24989 1.2473,0.12445 0.4384,0.15615 0.7165,-1.72973 -0.4204,-0.1996 -0.97,-0.79396 -1.1293,-1.48276 0.6025,-1.0436 1.8488,0.2366 1.1725,0.4431 0.3831,0.2643 1.1398,-1.4854 -0.3545,-0.3016 -0.7314,-1.0179 -0.7071,-1.7245 0.8522,-0.8522 1.7245,0.7071 1.0179,0.7314 0.3016,0.3545 1.4854,-1.1398 -0.2643,-0.3831 -0.4431,-1.1725 -0.2366,-1.8488 1.0436,-0.6025 1.48276,1.1293 0.79396,0.97 0.1996,0.4204 1.72973,-0.7165 -0.15615,-0.4384 -0.12445,-1.2473 0.24989,-1.847 1.16405,-0.3119 1.13991,1.4746 0.51586,1.1424 0.08399,0.4578 1.85623,-0.2444 -0.03736,-0.4639 0.20261,-1.237 0.71941,-1.7194 h 1.20512 l 0.71941,1.7194 0.20261,1.237 -0.03736,0.4639 1.85623,0.2444 0.08399,-0.4578 0.51586,-1.1424 1.13991,-1.4746 1.16405,0.3119 0.24989,1.847 -0.12445,1.2473 -0.15615,0.4384 1.72973,0.7165 0.1996,-0.4204 0.79396,-0.97 1.48276,-1.1293 1.0436,0.6025 -0.2366,1.8488 -0.4431,1.1725 -0.2643,0.3831 1.4854,1.1398 0.3016,-0.3545 1.0179,-0.7314 1.7245,-0.7071 0.8522,0.8522 -0.7071,1.7245 -0.7314,1.0179 -0.3545,0.3016 1.1398,1.4854 0.3831,-0.2643 1.1725,-0.4431 1.8488,-0.2366 0.6025,1.0436 -1.1293,1.48276 -0.97,0.79396 -0.4204,0.1996 0.7165,1.72973 0.4384,-0.15615 1.2473,-0.12445 1.847,0.24989 0.3119,1.16405 -1.4746,1.13991 -1.1424,0.51586 -0.4578,0.08399 z"
         id="path125621" />
      <circle
         style="fill:#2b2d2d;stroke:#000000;stroke-width:0.4;fill-opacity:0.8671329;stroke-opacity:1;stroke-miterlimit:4;stroke-dasharray:none"
         id="path125623"
         cx="0"
         cy="0"
         r="2.6458333" />
    </g>
    <g
       inkscape:label="Rendered Gears"
       transform="translate(21.710866,57.418184)"
       id="g125757"
       style="fill:#2b2d2d;fill-opacity:0.8671329;stroke:#000000;stroke-opacity:1;stroke-width:0.4;stroke-miterlimit:4;stroke-dasharray:none">
      <path
         style="fill:#2b2d2d;stroke:#000000;stroke-width:0.4;fill-opacity:0.8671329;stroke-opacity:1;stroke-miterlimit:4;stroke-dasharray:none"
         d="m 8.33259,-1.22361 1.06349,-0.15617 0.62382,0.06064 1.7592,0.79639 v 1.0455 L 10.0199,1.31914 9.39608,1.37978 8.33259,1.22361 7.82804,3.10662 8.82714,3.50312 9.33704,3.86753 10.4624,5.43686 9.93966,6.34228 8.0179,6.15235 7.44736,5.89297 6.60443,5.22597 5.22597,6.60443 5.89297,7.44736 6.15235,8.0179 6.34228,9.93966 5.43686,10.4624 3.86753,9.33704 3.50312,8.82714 3.10662,7.82804 1.22361,8.33259 1.37978,9.39608 1.31914,10.0199 0.52275,11.7791 h -1.0455 l -0.79639,-1.7592 -0.06064,-0.62382 0.15617,-1.06349 -1.88301,-0.50455 -0.3965,0.9991 -0.36441,0.5099 -1.56933,1.12536 -0.90542,-0.52274 0.18993,-1.92176 0.25938,-0.57054 0.667,-0.84293 -1.37846,-1.37846 -0.84293,0.667 -0.57054,0.25938 -1.92176,0.18993 -0.52274,-0.90542 1.12536,-1.56933 0.5099,-0.36441 0.9991,-0.3965 -0.50455,-1.88301 -1.06349,0.15617 -0.62382,-0.06064 -1.7592,-0.79639 v -1.0455 l 1.7592,-0.79639 0.62382,-0.06064 1.06349,0.15617 0.50455,-1.88301 -0.9991,-0.3965 -0.5099,-0.36441 -1.12536,-1.56933 0.52274,-0.90542 1.92176,0.18993 0.57054,0.25938 0.84293,0.667 1.37846,-1.37846 -0.667,-0.84293 -0.25938,-0.57054 -0.18993,-1.92176 0.90542,-0.52274 1.56933,1.12536 0.36441,0.5099 0.3965,0.9991 1.88301,-0.50455 -0.15617,-1.06349 0.06064,-0.62382 0.79639,-1.7592 h 1.0455 l 0.79639,1.7592 0.06064,0.62382 -0.15617,1.06349 1.88301,0.50455 0.3965,-0.9991 0.36441,-0.5099 1.56933,-1.12536 0.90542,0.52274 -0.18993,1.92176 -0.25938,0.57054 -0.667,0.84293 1.37846,1.37846 0.84293,-0.667 0.57054,-0.25938 1.92176,-0.18993 0.52274,0.90542 -1.12536,1.56933 -0.5099,0.36441 -0.9991,0.3965 z"
         id="path125753" />
      <circle
         style="fill:#2b2d2d;stroke:#000000;stroke-width:0.4;fill-opacity:0.8671329;stroke-opacity:1;stroke-miterlimit:4;stroke-dasharray:none"
         id="path125755"
         cx="0"
         cy="0"
         r="2.6458333" />
    </g>
    <path
       style="fill:#fdffff;fill-opacity:1;stroke:#000000;stroke-width:1.25944;stroke-linecap:square;stroke-linejoin:miter;stroke-miterlimit:4;stroke-dasharray:none;stroke-opacity:1;paint-order:stroke fill markers"
       d="m 86.545268,93.95872 c -0.967803,-0.178581 -2.7996,-1.410176 -4.07066,-2.736877 -5.236936,-5.466183 -1.362939,-14.390514 6.246833,-14.390514 7.661949,0 11.573839,9.135073 6.153322,14.369294 -2.483267,2.39792 -5.273814,3.321938 -8.329495,2.758097 z"
       id="path129385"
       transform="scale(0.26458333)" />
    <path
       style="fill:#ffffff;fill-opacity:1;stroke:#000000;stroke-width:1.25944;stroke-linecap:square;stroke-linejoin:miter;stroke-miterlimit:4;stroke-dasharray:none;stroke-opacity:1;paint-order:stroke fill markers"
       d="m 184.01389,176.43217 c -0.9678,-0.17858 -2.7996,-1.41017 -4.07066,-2.73687 -5.23693,-5.46619 -1.36294,-14.39052 6.24684,-14.39052 7.66195,0 11.57383,9.13507 6.15332,14.36929 -2.48327,2.39793 -5.27382,3.32194 -8.3295,2.7581 z"
       id="path129424"
       transform="scale(0.26458333)" />
    <path
       style="fill:#ffffff;fill-opacity:1;stroke:#000000;stroke-width:1.25944;stroke-linecap:square;stroke-linejoin:miter;stroke-miterlimit:4;stroke-dasharray:none;stroke-opacity:1;paint-order:stroke fill markers"
       d="m 79.880747,225.58302 c -0.967803,-0.17858 -2.7996,-1.41018 -4.07066,-2.73688 -5.236936,-5.46618 -1.362939,-14.39051 6.246832,-14.39051 7.66195,0 11.573836,9.13507 6.153323,14.36929 -2.483267,2.39792 -5.273814,3.32194 -8.329495,2.7581 z"
       id="path129463"
       transform="scale(0.26458333)" />
  </g>
</svg>
